<svg xmlns="http://www.w3.org/2000/svg" width="20.031" height="20.031" viewBox="0 0 20.031 20.031">
  <defs>
    <style>
      .cls-1 {
        fill: #fff;
        fill-rule: evenodd;
      }
    </style>
  </defs>
  <path id="Forma_3" data-name="Forma 3" class="cls-1" d="M26.063,35.009H23.928a0.751,0.751,0,0,1-.75-0.75v-0.91a1.021,1.021,0,0,0-.695-0.964,7.741,7.741,0,0,1-.953-0.4,0.982,0.982,0,0,0-1.133.18l-0.665.665a0.768,0.768,0,0,1-1.061,0l-1.51-1.51a0.751,0.751,0,0,1,0-1.061l0.674-.673a0.981,0.981,0,0,0,.182-1.13,7.778,7.778,0,0,1-.394-0.954,1.008,1.008,0,0,0-.953-0.69H15.733a0.751,0.751,0,0,1-.75-0.75V23.928a0.751,0.751,0,0,1,.75-0.75h0.953a1.01,1.01,0,0,0,.952-0.684,7.7,7.7,0,0,1,.393-0.937,0.982,0.982,0,0,0-.18-1.134l-0.69-.69a0.75,0.75,0,0,1,0-1.061l1.51-1.51a0.769,0.769,0,0,1,1.061,0l0.7,0.7a0.982,0.982,0,0,0,1.131.181,7.784,7.784,0,0,1,.938-0.389,1,1,0,0,0,.679-0.94V15.733a0.751,0.751,0,0,1,.75-0.75h2.135a0.751,0.751,0,0,1,.75.75v0.979a1,1,0,0,0,.679.94,7.778,7.778,0,0,1,.938.389,0.982,0.982,0,0,0,1.131-.181l0.7-.7a0.752,0.752,0,0,1,1.061,0l1.51,1.51a0.75,0.75,0,0,1,0,1.061l-0.69.69a0.982,0.982,0,0,0-.18,1.134,7.728,7.728,0,0,1,.392.937,1.01,1.01,0,0,0,.951.684h0.953a0.751,0.751,0,0,1,.75.75v2.136a0.751,0.751,0,0,1-.75.75H33.323a1.008,1.008,0,0,0-.953.69,7.734,7.734,0,0,1-.394.953,0.981,0.981,0,0,0,.182,1.13l0.674,0.674a0.751,0.751,0,0,1,0,1.061l-1.51,1.51a0.752,0.752,0,0,1-1.061,0L29.6,32.166a0.982,0.982,0,0,0-1.133-.18,7.743,7.743,0,0,1-.953.4,1.021,1.021,0,0,0-.695.964v0.91A0.751,0.751,0,0,1,26.063,35.009Zm-4.977-3.687a1.549,1.549,0,0,1,.693.164,7.207,7.207,0,0,0,.884.37,1.581,1.581,0,0,1,1.073,1.493v0.91a0.191,0.191,0,0,0,.191.191h2.135a0.191,0.191,0,0,0,.191-0.191v-0.91a1.58,1.58,0,0,1,1.073-1.493,7.215,7.215,0,0,0,.884-0.37,1.538,1.538,0,0,1,1.779.285l0.665,0.665a0.191,0.191,0,0,0,.27,0l1.51-1.51a0.191,0.191,0,0,0,0-.27l-0.674-.674a1.541,1.541,0,0,1-.288-1.773,7.2,7.2,0,0,0,.366-0.884,1.567,1.567,0,0,1,1.483-1.07h0.936a0.191,0.191,0,0,0,.191-0.191V23.928a0.191,0.191,0,0,0-.191-0.191H33.305a1.569,1.569,0,0,1-1.48-1.062,7.254,7.254,0,0,0-.364-0.869,1.541,1.541,0,0,1,.285-1.78l0.69-.69a0.191,0.191,0,0,0,0-.27l-1.51-1.51a0.191,0.191,0,0,0-.27,0l-0.7.7a1.541,1.541,0,0,1-1.774.287,7.2,7.2,0,0,0-.87-0.361,1.554,1.554,0,0,1-1.059-1.47V15.733a0.191,0.191,0,0,0-.191-0.191H23.928a0.191,0.191,0,0,0-.191.191v0.979a1.554,1.554,0,0,1-1.058,1.47,7.174,7.174,0,0,0-.87.361,1.541,1.541,0,0,1-1.774-.288l-0.7-.7a0.2,0.2,0,0,0-.27,0l-1.51,1.51a0.19,0.19,0,0,0,0,.27l0.69,0.69a1.54,1.54,0,0,1,.285,1.78,7.233,7.233,0,0,0-.364.87,1.569,1.569,0,0,1-1.48,1.062H15.733a0.191,0.191,0,0,0-.191.191v2.136a0.191,0.191,0,0,0,.191.191h0.936a1.567,1.567,0,0,1,1.483,1.07,7.253,7.253,0,0,0,.366.885,1.54,1.54,0,0,1-.288,1.773l-0.673.673a0.191,0.191,0,0,0,0,.27l1.51,1.51a0.2,0.2,0,0,0,.27,0L20,31.771A1.533,1.533,0,0,1,21.086,31.322ZM25,30.585A5.589,5.589,0,1,1,30.585,25,5.6,5.6,0,0,1,25,30.585Zm0-10.619A5.03,5.03,0,1,0,30.025,25,5.036,5.036,0,0,0,25,19.966Z" transform="translate(-14.969 -14.969)"/>
</svg>
