<svg xmlns="http://www.w3.org/2000/svg" width="21" height="20.031" viewBox="0 0 21 20.031">
  <defs>
    <style>
      .cls-1 {
        fill: #fff;
        fill-rule: evenodd;
      }
    </style>
  </defs>
  <path id="Forma_2" data-name="Forma 2" class="cls-1" d="M18.769,33.938a3.7,3.7,0,1,1,0-7.4,0.28,0.28,0,1,1,0,.56,3.141,3.141,0,1,0,0,6.282A0.28,0.28,0,1,1,18.769,33.938ZM20,35.009a1.5,1.5,0,0,1-1.513-1.488V26.857a1.514,1.514,0,0,1,3.027,0V33.52A1.5,1.5,0,0,1,20,35.009Zm0-9.08a0.938,0.938,0,0,0-.944.929V33.52a0.944,0.944,0,0,0,1.889,0V26.857A0.938,0.938,0,0,0,20,25.928Zm12.237,8.01a0.28,0.28,0,1,1,0-.56,3.141,3.141,0,1,0,0-6.282,0.28,0.28,0,1,1,0-.56A3.7,3.7,0,1,1,32.235,33.938Zm-1.229,1.071a1.5,1.5,0,0,1-1.513-1.488V26.857a1.514,1.514,0,0,1,3.027,0V33.52A1.5,1.5,0,0,1,31.006,35.009Zm0-9.08a0.938,0.938,0,0,0-.944.929V33.52a0.944,0.944,0,0,0,1.889,0V26.857A0.938,0.938,0,0,0,31.006,25.928Zm2.525,1.277a0.282,0.282,0,0,1-.285-0.28V23.617A7.923,7.923,0,0,0,25.5,15.544a7.923,7.923,0,0,0-7.745,8.073v3.309a0.285,0.285,0,0,1-.569,0V23.617A8.488,8.488,0,0,1,25.5,14.984a8.487,8.487,0,0,1,8.314,8.633v3.309A0.282,0.282,0,0,1,33.531,27.205Z" transform="translate(-15 -14.969)"/>
</svg>
