<svg xmlns="http://www.w3.org/2000/svg" width="11.969" height="20.031" viewBox="0 0 11.969 20.031">
  <defs>
    <style>
      .cls-1 {
        fill: #fff;
        fill-rule: evenodd;
      }
    </style>
  </defs>
  <path id="Forma_1" data-name="Forma 1" class="cls-1" d="M25,27.175a3.549,3.549,0,0,1-3.592-3.5v-5.2a3.593,3.593,0,0,1,7.183,0v5.2A3.549,3.549,0,0,1,25,27.175Zm0-11.633a2.981,2.981,0,0,0-3.017,2.937v5.2a3.018,3.018,0,0,0,6.034,0v-5.2A2.981,2.981,0,0,0,25,15.542Zm0,14.115a5.915,5.915,0,0,1-5.986-5.827,0.287,0.287,0,0,1,.575,0,5.413,5.413,0,0,0,10.823,0,0.287,0.287,0,0,1,.575,0A5.915,5.915,0,0,1,25,29.657Zm0,5.352a0.283,0.283,0,0,1-.287-0.28V29.378a0.287,0.287,0,0,1,.575,0v5.352A0.283,0.283,0,0,1,25,35.009Zm3.879,0H21.116a0.28,0.28,0,1,1,0-.559h7.758A0.28,0.28,0,1,1,28.874,35.009ZM28.111,20.08h-6.42a0.28,0.28,0,1,1,0-.559h6.42A0.28,0.28,0,1,1,28.111,20.08Z" transform="translate(-19 -14.969)"/>
</svg>
